%TF.GenerationSoftware,KiCad,Pcbnew,6.0.0-d3dd2cf0fa~116~ubuntu20.04.1*%
%TF.CreationDate,2022-01-27T11:36:16+01:00*%
%TF.ProjectId,ex00,65783030-2e6b-4696-9361-645f70636258,rev?*%
%TF.SameCoordinates,Original*%
%TF.FileFunction,Soldermask,Top*%
%TF.FilePolarity,Negative*%
%FSLAX46Y46*%
G04 Gerber Fmt 4.6, Leading zero omitted, Abs format (unit mm)*
G04 Created by KiCad (PCBNEW 6.0.0-d3dd2cf0fa~116~ubuntu20.04.1) date 2022-01-27 11:36:16*
%MOMM*%
%LPD*%
G01*
G04 APERTURE LIST*
G04 Aperture macros list*
%AMRoundRect*
0 Rectangle with rounded corners*
0 $1 Rounding radius*
0 $2 $3 $4 $5 $6 $7 $8 $9 X,Y pos of 4 corners*
0 Add a 4 corners polygon primitive as box body*
4,1,4,$2,$3,$4,$5,$6,$7,$8,$9,$2,$3,0*
0 Add four circle primitives for the rounded corners*
1,1,$1+$1,$2,$3*
1,1,$1+$1,$4,$5*
1,1,$1+$1,$6,$7*
1,1,$1+$1,$8,$9*
0 Add four rect primitives between the rounded corners*
20,1,$1+$1,$2,$3,$4,$5,0*
20,1,$1+$1,$4,$5,$6,$7,0*
20,1,$1+$1,$6,$7,$8,$9,0*
20,1,$1+$1,$8,$9,$2,$3,0*%
G04 Aperture macros list end*
%ADD10C,2.100000*%
%ADD11RoundRect,0.225000X-0.225000X-0.250000X0.225000X-0.250000X0.225000X0.250000X-0.225000X0.250000X0*%
%ADD12RoundRect,0.225000X0.250000X-0.225000X0.250000X0.225000X-0.250000X0.225000X-0.250000X-0.225000X0*%
%ADD13RoundRect,0.200000X0.275000X-0.200000X0.275000X0.200000X-0.275000X0.200000X-0.275000X-0.200000X0*%
%ADD14RoundRect,0.218750X0.218750X0.256250X-0.218750X0.256250X-0.218750X-0.256250X0.218750X-0.256250X0*%
%ADD15R,0.550000X1.600000*%
%ADD16R,1.600000X0.550000*%
%ADD17R,1.700000X1.700000*%
%ADD18O,1.700000X1.700000*%
%ADD19RoundRect,0.225000X-0.250000X0.225000X-0.250000X-0.225000X0.250000X-0.225000X0.250000X0.225000X0*%
%ADD20RoundRect,0.200000X-0.200000X-0.275000X0.200000X-0.275000X0.200000X0.275000X-0.200000X0.275000X0*%
%ADD21R,0.900000X1.700000*%
%ADD22RoundRect,0.200000X-0.275000X0.200000X-0.275000X-0.200000X0.275000X-0.200000X0.275000X0.200000X0*%
%ADD23R,1.800000X2.100000*%
G04 APERTURE END LIST*
D10*
%TO.C,H1*%
X61214000Y-73152000D03*
%TD*%
D11*
%TO.C,C2*%
X80505000Y-88138000D03*
X82055000Y-88138000D03*
%TD*%
D12*
%TO.C,C5*%
X65786000Y-89675000D03*
X65786000Y-88125000D03*
%TD*%
D13*
%TO.C,R2*%
X67564000Y-89725000D03*
X67564000Y-88075000D03*
%TD*%
D14*
%TO.C,D3*%
X78003500Y-80433333D03*
X76428500Y-80433333D03*
%TD*%
%TO.C,D1*%
X78003500Y-83820000D03*
X76428500Y-83820000D03*
%TD*%
D15*
%TO.C,U1*%
X65780000Y-85530000D03*
X66580000Y-85530000D03*
X67380000Y-85530000D03*
X68180000Y-85530000D03*
X68980000Y-85530000D03*
X69780000Y-85530000D03*
X70580000Y-85530000D03*
X71380000Y-85530000D03*
D16*
X72830000Y-84080000D03*
X72830000Y-83280000D03*
X72830000Y-82480000D03*
X72830000Y-81680000D03*
X72830000Y-80880000D03*
X72830000Y-80080000D03*
X72830000Y-79280000D03*
X72830000Y-78480000D03*
D15*
X71380000Y-77030000D03*
X70580000Y-77030000D03*
X69780000Y-77030000D03*
X68980000Y-77030000D03*
X68180000Y-77030000D03*
X67380000Y-77030000D03*
X66580000Y-77030000D03*
X65780000Y-77030000D03*
D16*
X64330000Y-78480000D03*
X64330000Y-79280000D03*
X64330000Y-80080000D03*
X64330000Y-80880000D03*
X64330000Y-81680000D03*
X64330000Y-82480000D03*
X64330000Y-83280000D03*
X64330000Y-84080000D03*
%TD*%
D14*
%TO.C,D2*%
X78003500Y-82126666D03*
X76428500Y-82126666D03*
%TD*%
D17*
%TO.C,J1*%
X61214000Y-89154000D03*
D18*
X61214000Y-86614000D03*
X61214000Y-84074000D03*
X61214000Y-81534000D03*
X61214000Y-78994000D03*
X61214000Y-76454000D03*
%TD*%
D17*
%TO.C,J2*%
X75946000Y-75946000D03*
D18*
X75946000Y-73406000D03*
X78486000Y-75946000D03*
X78486000Y-73406000D03*
X81026000Y-75946000D03*
X81026000Y-73406000D03*
%TD*%
D19*
%TO.C,C3*%
X65278000Y-73393000D03*
X65278000Y-74943000D03*
%TD*%
D12*
%TO.C,C4*%
X64008000Y-89675000D03*
X64008000Y-88125000D03*
%TD*%
D20*
%TO.C,R4*%
X80455000Y-82126666D03*
X82105000Y-82126666D03*
%TD*%
%TO.C,R6*%
X80455000Y-78740000D03*
X82105000Y-78740000D03*
%TD*%
D11*
%TO.C,C1*%
X80505000Y-85598000D03*
X82055000Y-85598000D03*
%TD*%
D14*
%TO.C,D4*%
X78003500Y-78740000D03*
X76428500Y-78740000D03*
%TD*%
D21*
%TO.C,SW1*%
X69420000Y-74168000D03*
X72820000Y-74168000D03*
%TD*%
D22*
%TO.C,R1*%
X67310000Y-73343000D03*
X67310000Y-74993000D03*
%TD*%
D20*
%TO.C,R5*%
X80455000Y-80433333D03*
X82105000Y-80433333D03*
%TD*%
%TO.C,R3*%
X80455000Y-83820000D03*
X82105000Y-83820000D03*
%TD*%
D21*
%TO.C,SW2*%
X69674000Y-88900000D03*
X73074000Y-88900000D03*
%TD*%
D23*
%TO.C,Y1*%
X77604000Y-89588000D03*
X77604000Y-86688000D03*
X75304000Y-86688000D03*
X75304000Y-89588000D03*
%TD*%
M02*
