%TF.GenerationSoftware,KiCad,Pcbnew,6.0.0-d3dd2cf0fa~116~ubuntu20.04.1*%
%TF.CreationDate,2022-01-27T11:36:15+01:00*%
%TF.ProjectId,ex00,65783030-2e6b-4696-9361-645f70636258,rev?*%
%TF.SameCoordinates,Original*%
%TF.FileFunction,Copper,L1,Top*%
%TF.FilePolarity,Positive*%
%FSLAX46Y46*%
G04 Gerber Fmt 4.6, Leading zero omitted, Abs format (unit mm)*
G04 Created by KiCad (PCBNEW 6.0.0-d3dd2cf0fa~116~ubuntu20.04.1) date 2022-01-27 11:36:15*
%MOMM*%
%LPD*%
G01*
G04 APERTURE LIST*
G04 Aperture macros list*
%AMRoundRect*
0 Rectangle with rounded corners*
0 $1 Rounding radius*
0 $2 $3 $4 $5 $6 $7 $8 $9 X,Y pos of 4 corners*
0 Add a 4 corners polygon primitive as box body*
4,1,4,$2,$3,$4,$5,$6,$7,$8,$9,$2,$3,0*
0 Add four circle primitives for the rounded corners*
1,1,$1+$1,$2,$3*
1,1,$1+$1,$4,$5*
1,1,$1+$1,$6,$7*
1,1,$1+$1,$8,$9*
0 Add four rect primitives between the rounded corners*
20,1,$1+$1,$2,$3,$4,$5,0*
20,1,$1+$1,$4,$5,$6,$7,0*
20,1,$1+$1,$6,$7,$8,$9,0*
20,1,$1+$1,$8,$9,$2,$3,0*%
G04 Aperture macros list end*
%TA.AperFunction,SMDPad,CuDef*%
%ADD10RoundRect,0.225000X-0.225000X-0.250000X0.225000X-0.250000X0.225000X0.250000X-0.225000X0.250000X0*%
%TD*%
%TA.AperFunction,SMDPad,CuDef*%
%ADD11RoundRect,0.225000X0.250000X-0.225000X0.250000X0.225000X-0.250000X0.225000X-0.250000X-0.225000X0*%
%TD*%
%TA.AperFunction,SMDPad,CuDef*%
%ADD12RoundRect,0.200000X0.275000X-0.200000X0.275000X0.200000X-0.275000X0.200000X-0.275000X-0.200000X0*%
%TD*%
%TA.AperFunction,SMDPad,CuDef*%
%ADD13RoundRect,0.218750X0.218750X0.256250X-0.218750X0.256250X-0.218750X-0.256250X0.218750X-0.256250X0*%
%TD*%
%TA.AperFunction,SMDPad,CuDef*%
%ADD14R,0.550000X1.600000*%
%TD*%
%TA.AperFunction,SMDPad,CuDef*%
%ADD15R,1.600000X0.550000*%
%TD*%
%TA.AperFunction,ComponentPad*%
%ADD16R,1.700000X1.700000*%
%TD*%
%TA.AperFunction,ComponentPad*%
%ADD17O,1.700000X1.700000*%
%TD*%
%TA.AperFunction,SMDPad,CuDef*%
%ADD18RoundRect,0.225000X-0.250000X0.225000X-0.250000X-0.225000X0.250000X-0.225000X0.250000X0.225000X0*%
%TD*%
%TA.AperFunction,SMDPad,CuDef*%
%ADD19RoundRect,0.200000X-0.200000X-0.275000X0.200000X-0.275000X0.200000X0.275000X-0.200000X0.275000X0*%
%TD*%
%TA.AperFunction,SMDPad,CuDef*%
%ADD20R,0.900000X1.700000*%
%TD*%
%TA.AperFunction,SMDPad,CuDef*%
%ADD21RoundRect,0.200000X-0.275000X0.200000X-0.275000X-0.200000X0.275000X-0.200000X0.275000X0.200000X0*%
%TD*%
%TA.AperFunction,SMDPad,CuDef*%
%ADD22R,1.800000X2.100000*%
%TD*%
%TA.AperFunction,ViaPad*%
%ADD23C,0.800000*%
%TD*%
%TA.AperFunction,Conductor*%
%ADD24C,0.250000*%
%TD*%
G04 APERTURE END LIST*
D10*
%TO.P,C2,1*%
%TO.N,/XTAL1*%
X80505000Y-88138000D03*
%TO.P,C2,2*%
%TO.N,GND*%
X82055000Y-88138000D03*
%TD*%
D11*
%TO.P,C5,1*%
%TO.N,+5V*%
X65786000Y-89675000D03*
%TO.P,C5,2*%
%TO.N,GND*%
X65786000Y-88125000D03*
%TD*%
D12*
%TO.P,R2,1*%
%TO.N,+5V*%
X67564000Y-89725000D03*
%TO.P,R2,2*%
%TO.N,/BUT_0*%
X67564000Y-88075000D03*
%TD*%
D13*
%TO.P,D3,1,K*%
%TO.N,Net-(D3-Pad1)*%
X78003500Y-80433333D03*
%TO.P,D3,2,A*%
%TO.N,/LED_2*%
X76428500Y-80433333D03*
%TD*%
%TO.P,D1,1,K*%
%TO.N,Net-(D1-Pad1)*%
X78003500Y-83820000D03*
%TO.P,D1,2,A*%
%TO.N,/LED_0*%
X76428500Y-83820000D03*
%TD*%
D14*
%TO.P,U1,1,PD3*%
%TO.N,/BUT_0*%
X65780000Y-85530000D03*
%TO.P,U1,2,PD4*%
%TO.N,unconnected-(U1-Pad2)*%
X66580000Y-85530000D03*
%TO.P,U1,3,GND*%
%TO.N,GND*%
X67380000Y-85530000D03*
%TO.P,U1,4,VCC*%
%TO.N,+5V*%
X68180000Y-85530000D03*
%TO.P,U1,5,GND*%
%TO.N,GND*%
X68980000Y-85530000D03*
%TO.P,U1,6,VCC*%
%TO.N,+5V*%
X69780000Y-85530000D03*
%TO.P,U1,7,XTAL1/PB6*%
%TO.N,/XTAL1*%
X70580000Y-85530000D03*
%TO.P,U1,8,XTAL2/PB7*%
%TO.N,/XTAL2*%
X71380000Y-85530000D03*
D15*
%TO.P,U1,9,PD5*%
%TO.N,unconnected-(U1-Pad9)*%
X72830000Y-84080000D03*
%TO.P,U1,10,PD6*%
%TO.N,unconnected-(U1-Pad10)*%
X72830000Y-83280000D03*
%TO.P,U1,11,PD7*%
%TO.N,unconnected-(U1-Pad11)*%
X72830000Y-82480000D03*
%TO.P,U1,12,PB0*%
%TO.N,/LED_0*%
X72830000Y-81680000D03*
%TO.P,U1,13,PB1*%
%TO.N,/LED_1*%
X72830000Y-80880000D03*
%TO.P,U1,14,PB2*%
%TO.N,/LED_2*%
X72830000Y-80080000D03*
%TO.P,U1,15,PB3*%
%TO.N,/LED_3{slash}MOSI*%
X72830000Y-79280000D03*
%TO.P,U1,16,PB4*%
%TO.N,/MISO*%
X72830000Y-78480000D03*
D14*
%TO.P,U1,17,PB5*%
%TO.N,/SCK*%
X71380000Y-77030000D03*
%TO.P,U1,18,AVCC*%
%TO.N,+5V*%
X70580000Y-77030000D03*
%TO.P,U1,19,ADC6*%
%TO.N,unconnected-(U1-Pad19)*%
X69780000Y-77030000D03*
%TO.P,U1,20,AREF*%
%TO.N,+5V*%
X68980000Y-77030000D03*
%TO.P,U1,21,GND*%
%TO.N,GND*%
X68180000Y-77030000D03*
%TO.P,U1,22,ADC7*%
%TO.N,unconnected-(U1-Pad22)*%
X67380000Y-77030000D03*
%TO.P,U1,23,PC0*%
%TO.N,unconnected-(U1-Pad23)*%
X66580000Y-77030000D03*
%TO.P,U1,24,PC1*%
%TO.N,unconnected-(U1-Pad24)*%
X65780000Y-77030000D03*
D15*
%TO.P,U1,25,PC2*%
%TO.N,unconnected-(U1-Pad25)*%
X64330000Y-78480000D03*
%TO.P,U1,26,PC3*%
%TO.N,unconnected-(U1-Pad26)*%
X64330000Y-79280000D03*
%TO.P,U1,27,PC4*%
%TO.N,unconnected-(U1-Pad27)*%
X64330000Y-80080000D03*
%TO.P,U1,28,PC5*%
%TO.N,unconnected-(U1-Pad28)*%
X64330000Y-80880000D03*
%TO.P,U1,29,~{RESET}/PC6*%
%TO.N,/~{RESET}*%
X64330000Y-81680000D03*
%TO.P,U1,30,PD0*%
%TO.N,/MCU_RX*%
X64330000Y-82480000D03*
%TO.P,U1,31,PD1*%
%TO.N,/MCU_TX*%
X64330000Y-83280000D03*
%TO.P,U1,32,PD2*%
%TO.N,unconnected-(U1-Pad32)*%
X64330000Y-84080000D03*
%TD*%
D13*
%TO.P,D2,1,K*%
%TO.N,Net-(D2-Pad1)*%
X78003500Y-82126666D03*
%TO.P,D2,2,A*%
%TO.N,/LED_1*%
X76428500Y-82126666D03*
%TD*%
D16*
%TO.P,J1,1,Pin_1*%
%TO.N,+5V*%
X61214000Y-89154000D03*
D17*
%TO.P,J1,2,Pin_2*%
%TO.N,GND*%
X61214000Y-86614000D03*
%TO.P,J1,3,Pin_3*%
%TO.N,/MCU_TX*%
X61214000Y-84074000D03*
%TO.P,J1,4,Pin_4*%
%TO.N,/MCU_RX*%
X61214000Y-81534000D03*
%TO.P,J1,5,Pin_5*%
%TO.N,Net-(C3-Pad1)*%
X61214000Y-78994000D03*
%TO.P,J1,6,Pin_6*%
%TO.N,unconnected-(J1-Pad6)*%
X61214000Y-76454000D03*
%TD*%
D16*
%TO.P,J2,1,MISO*%
%TO.N,/MISO*%
X75946000Y-75946000D03*
D17*
%TO.P,J2,2,VCC*%
%TO.N,+5V*%
X75946000Y-73406000D03*
%TO.P,J2,3,SCK*%
%TO.N,/SCK*%
X78486000Y-75946000D03*
%TO.P,J2,4,MOSI*%
%TO.N,/LED_3{slash}MOSI*%
X78486000Y-73406000D03*
%TO.P,J2,5,~{RST}*%
%TO.N,/~{RESET}*%
X81026000Y-75946000D03*
%TO.P,J2,6,GND*%
%TO.N,GND*%
X81026000Y-73406000D03*
%TD*%
D18*
%TO.P,C3,1*%
%TO.N,Net-(C3-Pad1)*%
X65278000Y-73393000D03*
%TO.P,C3,2*%
%TO.N,/~{RESET}*%
X65278000Y-74943000D03*
%TD*%
D11*
%TO.P,C4,1*%
%TO.N,+5V*%
X64008000Y-89675000D03*
%TO.P,C4,2*%
%TO.N,GND*%
X64008000Y-88125000D03*
%TD*%
D19*
%TO.P,R4,1*%
%TO.N,Net-(D2-Pad1)*%
X80455000Y-82126666D03*
%TO.P,R4,2*%
%TO.N,GND*%
X82105000Y-82126666D03*
%TD*%
%TO.P,R6,1*%
%TO.N,Net-(D4-Pad1)*%
X80455000Y-78740000D03*
%TO.P,R6,2*%
%TO.N,GND*%
X82105000Y-78740000D03*
%TD*%
D10*
%TO.P,C1,1*%
%TO.N,/XTAL2*%
X80505000Y-85598000D03*
%TO.P,C1,2*%
%TO.N,GND*%
X82055000Y-85598000D03*
%TD*%
D13*
%TO.P,D4,1,K*%
%TO.N,Net-(D4-Pad1)*%
X78003500Y-78740000D03*
%TO.P,D4,2,A*%
%TO.N,/LED_3{slash}MOSI*%
X76428500Y-78740000D03*
%TD*%
D20*
%TO.P,SW1,1,1*%
%TO.N,/~{RESET}*%
X69420000Y-74168000D03*
%TO.P,SW1,2,2*%
%TO.N,GND*%
X72820000Y-74168000D03*
%TD*%
D21*
%TO.P,R1,1*%
%TO.N,+5V*%
X67310000Y-73343000D03*
%TO.P,R1,2*%
%TO.N,/~{RESET}*%
X67310000Y-74993000D03*
%TD*%
D19*
%TO.P,R5,1*%
%TO.N,Net-(D3-Pad1)*%
X80455000Y-80433333D03*
%TO.P,R5,2*%
%TO.N,GND*%
X82105000Y-80433333D03*
%TD*%
%TO.P,R3,1*%
%TO.N,Net-(D1-Pad1)*%
X80455000Y-83820000D03*
%TO.P,R3,2*%
%TO.N,GND*%
X82105000Y-83820000D03*
%TD*%
D20*
%TO.P,SW2,1,1*%
%TO.N,/BUT_0*%
X69674000Y-88900000D03*
%TO.P,SW2,2,2*%
%TO.N,GND*%
X73074000Y-88900000D03*
%TD*%
D22*
%TO.P,Y1,1,1*%
%TO.N,/XTAL2*%
X77604000Y-89588000D03*
%TO.P,Y1,2,2*%
%TO.N,GND*%
X77604000Y-86688000D03*
%TO.P,Y1,3,3*%
%TO.N,/XTAL1*%
X75304000Y-86688000D03*
%TO.P,Y1,4*%
%TO.N,N/C*%
X75304000Y-89588000D03*
%TD*%
D23*
%TO.N,GND*%
X71882000Y-90424000D03*
X70358000Y-90424000D03*
%TD*%
D24*
%TO.N,/BUT_0*%
X68849000Y-88075000D02*
X69674000Y-88900000D01*
X65780000Y-85530000D02*
X65780000Y-86580000D01*
X65780000Y-86580000D02*
X65854511Y-86654511D01*
X67564000Y-87399717D02*
X67564000Y-88075000D01*
X66818793Y-86654511D02*
X67564000Y-87399717D01*
X67564000Y-88075000D02*
X68849000Y-88075000D01*
X65854511Y-86654511D02*
X66818793Y-86654511D01*
%TO.N,GND*%
X62497000Y-86614000D02*
X64008000Y-88125000D01*
X66281000Y-88125000D02*
X67056000Y-88900000D01*
X68072000Y-88900000D02*
X68738511Y-89566511D01*
X65786000Y-88125000D02*
X66281000Y-88125000D01*
X82105000Y-80433333D02*
X82105000Y-82126666D01*
X68980000Y-84480000D02*
X68905489Y-84405489D01*
X67380000Y-85530000D02*
X67380000Y-86580000D01*
X77604000Y-86838000D02*
X77604000Y-86688000D01*
X76228511Y-88213489D02*
X77604000Y-86838000D01*
X68943467Y-75342511D02*
X68180000Y-76105978D01*
X70358000Y-90424000D02*
X70448511Y-90333489D01*
X82200511Y-78644489D02*
X82105000Y-78740000D01*
X73074000Y-89232000D02*
X71882000Y-90424000D01*
X67380000Y-86580000D02*
X68425480Y-87625480D01*
X70448511Y-90333489D02*
X70448511Y-87884000D01*
X73760511Y-88213489D02*
X73074000Y-88900000D01*
X70189991Y-87625480D02*
X70448511Y-87884000D01*
X70358000Y-90424000D02*
X69088000Y-90424000D01*
X68180000Y-76105978D02*
X68180000Y-77030000D01*
X82105000Y-78740000D02*
X82105000Y-80433333D01*
X76228511Y-88213489D02*
X73760511Y-88213489D01*
X68425480Y-87625480D02*
X70189991Y-87625480D01*
X68180000Y-77030000D02*
X68180000Y-83928000D01*
X82105000Y-85548000D02*
X82055000Y-85598000D01*
X67056000Y-88900000D02*
X68072000Y-88900000D01*
X73074000Y-88900000D02*
X73074000Y-89232000D01*
X67380000Y-84605978D02*
X67380000Y-85530000D01*
X82055000Y-88138000D02*
X82055000Y-85598000D01*
X81026000Y-73406000D02*
X82200511Y-74580511D01*
X68980000Y-85530000D02*
X68980000Y-84480000D01*
X82200511Y-74580511D02*
X82200511Y-78644489D01*
X68738511Y-90074511D02*
X68738511Y-89566511D01*
X72820000Y-74168000D02*
X71645489Y-75342511D01*
X67580489Y-84405489D02*
X67380000Y-84605978D01*
X79979489Y-90962511D02*
X82055000Y-88887000D01*
X82055000Y-88887000D02*
X82055000Y-88138000D01*
X82105000Y-82126666D02*
X82105000Y-83820000D01*
X68905489Y-84405489D02*
X67580489Y-84405489D01*
X82105000Y-83820000D02*
X82105000Y-85548000D01*
X64008000Y-88125000D02*
X65786000Y-88125000D01*
X61214000Y-86614000D02*
X62497000Y-86614000D01*
X68980000Y-84728000D02*
X68980000Y-85530000D01*
X73074000Y-88900000D02*
X73074000Y-89957022D01*
X68180000Y-83928000D02*
X68980000Y-84728000D01*
X69088000Y-90424000D02*
X68738511Y-90074511D01*
X73074000Y-89957022D02*
X74079489Y-90962511D01*
X71645489Y-75342511D02*
X68943467Y-75342511D01*
X74079489Y-90962511D02*
X79979489Y-90962511D01*
%TO.N,+5V*%
X63487000Y-89154000D02*
X64008000Y-89675000D01*
X67514000Y-89675000D02*
X67564000Y-89725000D01*
X69780000Y-78754022D02*
X68980000Y-77954022D01*
X69180489Y-75905489D02*
X70379511Y-75905489D01*
X70580000Y-76105978D02*
X70580000Y-77030000D01*
X63767755Y-72618480D02*
X61106746Y-75279489D01*
X61214000Y-89154000D02*
X63487000Y-89154000D01*
X68980000Y-77954022D02*
X68980000Y-77030000D01*
X60610511Y-75279489D02*
X60039489Y-75850511D01*
X68980000Y-76105978D02*
X69180489Y-75905489D01*
X65786000Y-89675000D02*
X67514000Y-89675000D01*
X67753283Y-89725000D02*
X69176794Y-91148511D01*
X70379511Y-75905489D02*
X70580000Y-76105978D01*
X75946000Y-73406000D02*
X75501260Y-73406000D01*
X73001771Y-75905489D02*
X70674022Y-75905489D01*
X69685978Y-86654511D02*
X68380489Y-86654511D01*
X70658103Y-91148511D02*
X71120000Y-90686614D01*
X68980000Y-77030000D02*
X68980000Y-76105978D01*
X64008000Y-89675000D02*
X65786000Y-89675000D01*
X67564000Y-89725000D02*
X67753283Y-89725000D01*
X69780000Y-86560489D02*
X69685978Y-86654511D01*
X69780000Y-85530000D02*
X69780000Y-78754022D01*
X60039489Y-87979489D02*
X61214000Y-89154000D01*
X75501260Y-73406000D02*
X73001771Y-75905489D01*
X68380489Y-86654511D02*
X68180000Y-86454022D01*
X60039489Y-75850511D02*
X60039489Y-87979489D01*
X71120000Y-87900489D02*
X69780000Y-86560489D01*
X71120000Y-90686614D02*
X71120000Y-87900489D01*
X61106746Y-75279489D02*
X60610511Y-75279489D01*
X68180000Y-86454022D02*
X68180000Y-85530000D01*
X67310000Y-73343000D02*
X66585480Y-72618480D01*
X69780000Y-86560489D02*
X69780000Y-85530000D01*
X70580000Y-75999511D02*
X70580000Y-77030000D01*
X69176794Y-91148511D02*
X70658103Y-91148511D01*
X70674022Y-75905489D02*
X70580000Y-75999511D01*
X66585480Y-72618480D02*
X63767755Y-72618480D01*
%TO.N,/XTAL1*%
X70868000Y-86868000D02*
X74422000Y-86868000D01*
X75304000Y-86180000D02*
X75304000Y-86479022D01*
X78994000Y-86627000D02*
X78994000Y-85129031D01*
X75304000Y-86180000D02*
X74616000Y-86868000D01*
X75304000Y-86538000D02*
X75304000Y-86688000D01*
X80505000Y-88138000D02*
X78994000Y-86627000D01*
X70580000Y-86580000D02*
X70868000Y-86868000D01*
X78994000Y-85129031D02*
X76712969Y-85129031D01*
X76712969Y-85129031D02*
X75304000Y-86538000D01*
X70580000Y-85530000D02*
X70580000Y-86580000D01*
%TO.N,/XTAL2*%
X79586511Y-84679511D02*
X80505000Y-85598000D01*
X77604000Y-89080000D02*
X80815138Y-89080000D01*
X81279520Y-86372520D02*
X80505000Y-85598000D01*
X77604000Y-89080000D02*
X77604000Y-89379022D01*
X80815138Y-89080000D02*
X81279520Y-88615618D01*
X71380000Y-85530000D02*
X72230489Y-84679511D01*
X81279520Y-88615618D02*
X81279520Y-86372520D01*
X72230489Y-84679511D02*
X79586511Y-84679511D01*
%TO.N,/LED_0*%
X74288500Y-81680000D02*
X76428500Y-83820000D01*
X72830000Y-81680000D02*
X74288500Y-81680000D01*
%TO.N,/LED_1*%
X72830000Y-80880000D02*
X75181834Y-80880000D01*
X75181834Y-80880000D02*
X76428500Y-82126666D01*
%TO.N,/LED_2*%
X76428500Y-80433333D02*
X76075167Y-80080000D01*
X76075167Y-80080000D02*
X72830000Y-80080000D01*
%TO.N,/LED_3{slash}MOSI*%
X79660511Y-74580511D02*
X79660511Y-76549489D01*
X78269520Y-77940480D02*
X77228020Y-77940480D01*
X77228020Y-77940480D02*
X76428500Y-78740000D01*
X78486000Y-73406000D02*
X79660511Y-74580511D01*
X75888500Y-79280000D02*
X72830000Y-79280000D01*
X76428500Y-78740000D02*
X75888500Y-79280000D01*
X79660511Y-76549489D02*
X78269520Y-77940480D01*
%TO.N,/MISO*%
X73412000Y-78480000D02*
X75946000Y-75946000D01*
X72830000Y-78480000D02*
X73412000Y-78480000D01*
%TO.N,/SCK*%
X72512978Y-77030000D02*
X71380000Y-77030000D01*
X77311489Y-74771489D02*
X74771489Y-74771489D01*
X74771489Y-74771489D02*
X72512978Y-77030000D01*
X78486000Y-75946000D02*
X77311489Y-74771489D01*
%TO.N,/~{RESET}*%
X81026000Y-75946000D02*
X81026000Y-75257988D01*
X64330000Y-81680000D02*
X63405978Y-81680000D01*
X81026000Y-75257988D02*
X79660511Y-73892499D01*
X63205489Y-77015511D02*
X65278000Y-74943000D01*
X71356511Y-72231489D02*
X69420000Y-74168000D01*
X67310000Y-74993000D02*
X68595000Y-74993000D01*
X63405978Y-81680000D02*
X63205489Y-81479511D01*
X65278000Y-74943000D02*
X67260000Y-74943000D01*
X68595000Y-74993000D02*
X69420000Y-74168000D01*
X79660511Y-72919501D02*
X78972499Y-72231489D01*
X79660511Y-73892499D02*
X79660511Y-72919501D01*
X67260000Y-74943000D02*
X67310000Y-74993000D01*
X63205489Y-81479511D02*
X63205489Y-77015511D01*
X78972499Y-72231489D02*
X71356511Y-72231489D01*
%TO.N,/MCU_RX*%
X62160000Y-82480000D02*
X64330000Y-82480000D01*
X61214000Y-81534000D02*
X62160000Y-82480000D01*
%TO.N,/MCU_TX*%
X61214000Y-84074000D02*
X62008000Y-83280000D01*
X62008000Y-83280000D02*
X64330000Y-83280000D01*
%TO.N,Net-(D2-Pad1)*%
X80455000Y-82126666D02*
X78003500Y-82126666D01*
%TO.N,Net-(D4-Pad1)*%
X80455000Y-78740000D02*
X78003500Y-78740000D01*
%TO.N,Net-(D3-Pad1)*%
X78003500Y-80433333D02*
X80455000Y-80433333D01*
%TO.N,Net-(D1-Pad1)*%
X78003500Y-83820000D02*
X80455000Y-83820000D01*
%TO.N,Net-(C3-Pad1)*%
X61214000Y-78115010D02*
X62388511Y-76940499D01*
X62388511Y-76940499D02*
X62388511Y-75279489D01*
X62388511Y-75279489D02*
X64275000Y-73393000D01*
X64275000Y-73393000D02*
X65278000Y-73393000D01*
X61214000Y-78994000D02*
X61214000Y-78115010D01*
%TD*%
M02*
