%TF.GenerationSoftware,KiCad,Pcbnew,6.0.0-d3dd2cf0fa~116~ubuntu20.04.1*%
%TF.CreationDate,2022-01-27T11:36:16+01:00*%
%TF.ProjectId,ex00,65783030-2e6b-4696-9361-645f70636258,rev?*%
%TF.SameCoordinates,Original*%
%TF.FileFunction,Legend,Top*%
%TF.FilePolarity,Positive*%
%FSLAX46Y46*%
G04 Gerber Fmt 4.6, Leading zero omitted, Abs format (unit mm)*
G04 Created by KiCad (PCBNEW 6.0.0-d3dd2cf0fa~116~ubuntu20.04.1) date 2022-01-27 11:36:16*
%MOMM*%
%LPD*%
G01*
G04 APERTURE LIST*
%ADD10C,0.150000*%
%ADD11C,0.120000*%
G04 APERTURE END LIST*
D10*
%TO.C,C2*%
X81163333Y-89912000D02*
X81130000Y-89945333D01*
X81030000Y-89978666D01*
X80963333Y-89978666D01*
X80863333Y-89945333D01*
X80796666Y-89878666D01*
X80763333Y-89812000D01*
X80730000Y-89678666D01*
X80730000Y-89578666D01*
X80763333Y-89445333D01*
X80796666Y-89378666D01*
X80863333Y-89312000D01*
X80963333Y-89278666D01*
X81030000Y-89278666D01*
X81130000Y-89312000D01*
X81163333Y-89345333D01*
X81430000Y-89345333D02*
X81463333Y-89312000D01*
X81530000Y-89278666D01*
X81696666Y-89278666D01*
X81763333Y-89312000D01*
X81796666Y-89345333D01*
X81830000Y-89412000D01*
X81830000Y-89478666D01*
X81796666Y-89578666D01*
X81396666Y-89978666D01*
X81830000Y-89978666D01*
%TO.C,C5*%
X65669333Y-91182000D02*
X65636000Y-91215333D01*
X65536000Y-91248666D01*
X65469333Y-91248666D01*
X65369333Y-91215333D01*
X65302666Y-91148666D01*
X65269333Y-91082000D01*
X65236000Y-90948666D01*
X65236000Y-90848666D01*
X65269333Y-90715333D01*
X65302666Y-90648666D01*
X65369333Y-90582000D01*
X65469333Y-90548666D01*
X65536000Y-90548666D01*
X65636000Y-90582000D01*
X65669333Y-90615333D01*
X66302666Y-90548666D02*
X65969333Y-90548666D01*
X65936000Y-90882000D01*
X65969333Y-90848666D01*
X66036000Y-90815333D01*
X66202666Y-90815333D01*
X66269333Y-90848666D01*
X66302666Y-90882000D01*
X66336000Y-90948666D01*
X66336000Y-91115333D01*
X66302666Y-91182000D01*
X66269333Y-91215333D01*
X66202666Y-91248666D01*
X66036000Y-91248666D01*
X65969333Y-91215333D01*
X65936000Y-91182000D01*
%TO.C,R2*%
X67447333Y-91248666D02*
X67214000Y-90915333D01*
X67047333Y-91248666D02*
X67047333Y-90548666D01*
X67314000Y-90548666D01*
X67380666Y-90582000D01*
X67414000Y-90615333D01*
X67447333Y-90682000D01*
X67447333Y-90782000D01*
X67414000Y-90848666D01*
X67380666Y-90882000D01*
X67314000Y-90915333D01*
X67047333Y-90915333D01*
X67714000Y-90615333D02*
X67747333Y-90582000D01*
X67814000Y-90548666D01*
X67980666Y-90548666D01*
X68047333Y-90582000D01*
X68080666Y-90615333D01*
X68114000Y-90682000D01*
X68114000Y-90748666D01*
X68080666Y-90848666D01*
X67680666Y-91248666D01*
X68114000Y-91248666D01*
%TO.C,D3*%
X74077904Y-80885713D02*
X74077904Y-79885713D01*
X74316000Y-79885713D01*
X74458857Y-79933333D01*
X74554095Y-80028571D01*
X74601714Y-80123809D01*
X74649333Y-80314285D01*
X74649333Y-80457142D01*
X74601714Y-80647618D01*
X74554095Y-80742856D01*
X74458857Y-80838094D01*
X74316000Y-80885713D01*
X74077904Y-80885713D01*
X74982666Y-79885713D02*
X75601714Y-79885713D01*
X75268380Y-80266666D01*
X75411238Y-80266666D01*
X75506476Y-80314285D01*
X75554095Y-80361904D01*
X75601714Y-80457142D01*
X75601714Y-80695237D01*
X75554095Y-80790475D01*
X75506476Y-80838094D01*
X75411238Y-80885713D01*
X75125523Y-80885713D01*
X75030285Y-80838094D01*
X74982666Y-80790475D01*
%TO.C,D1*%
X74077904Y-84272380D02*
X74077904Y-83272380D01*
X74316000Y-83272380D01*
X74458857Y-83320000D01*
X74554095Y-83415238D01*
X74601714Y-83510476D01*
X74649333Y-83700952D01*
X74649333Y-83843809D01*
X74601714Y-84034285D01*
X74554095Y-84129523D01*
X74458857Y-84224761D01*
X74316000Y-84272380D01*
X74077904Y-84272380D01*
X75601714Y-84272380D02*
X75030285Y-84272380D01*
X75316000Y-84272380D02*
X75316000Y-83272380D01*
X75220761Y-83415238D01*
X75125523Y-83510476D01*
X75030285Y-83558095D01*
%TO.C,U1*%
X63500095Y-76414380D02*
X63500095Y-77223904D01*
X63547714Y-77319142D01*
X63595333Y-77366761D01*
X63690571Y-77414380D01*
X63881047Y-77414380D01*
X63976285Y-77366761D01*
X64023904Y-77319142D01*
X64071523Y-77223904D01*
X64071523Y-76414380D01*
X65071523Y-77414380D02*
X64500095Y-77414380D01*
X64785809Y-77414380D02*
X64785809Y-76414380D01*
X64690571Y-76557238D01*
X64595333Y-76652476D01*
X64500095Y-76700095D01*
%TO.C,D2*%
X74077904Y-82579046D02*
X74077904Y-81579046D01*
X74316000Y-81579046D01*
X74458857Y-81626666D01*
X74554095Y-81721904D01*
X74601714Y-81817142D01*
X74649333Y-82007618D01*
X74649333Y-82150475D01*
X74601714Y-82340951D01*
X74554095Y-82436189D01*
X74458857Y-82531427D01*
X74316000Y-82579046D01*
X74077904Y-82579046D01*
X75030285Y-81674285D02*
X75077904Y-81626666D01*
X75173142Y-81579046D01*
X75411238Y-81579046D01*
X75506476Y-81626666D01*
X75554095Y-81674285D01*
X75601714Y-81769523D01*
X75601714Y-81864761D01*
X75554095Y-82007618D01*
X74982666Y-82579046D01*
X75601714Y-82579046D01*
%TO.C,C3*%
X65111333Y-72493142D02*
X65063714Y-72540761D01*
X64920857Y-72588380D01*
X64825619Y-72588380D01*
X64682761Y-72540761D01*
X64587523Y-72445523D01*
X64539904Y-72350285D01*
X64492285Y-72159809D01*
X64492285Y-72016952D01*
X64539904Y-71826476D01*
X64587523Y-71731238D01*
X64682761Y-71636000D01*
X64825619Y-71588380D01*
X64920857Y-71588380D01*
X65063714Y-71636000D01*
X65111333Y-71683619D01*
X65444666Y-71588380D02*
X66063714Y-71588380D01*
X65730380Y-71969333D01*
X65873238Y-71969333D01*
X65968476Y-72016952D01*
X66016095Y-72064571D01*
X66063714Y-72159809D01*
X66063714Y-72397904D01*
X66016095Y-72493142D01*
X65968476Y-72540761D01*
X65873238Y-72588380D01*
X65587523Y-72588380D01*
X65492285Y-72540761D01*
X65444666Y-72493142D01*
%TO.C,C4*%
X63891333Y-91182000D02*
X63858000Y-91215333D01*
X63758000Y-91248666D01*
X63691333Y-91248666D01*
X63591333Y-91215333D01*
X63524666Y-91148666D01*
X63491333Y-91082000D01*
X63458000Y-90948666D01*
X63458000Y-90848666D01*
X63491333Y-90715333D01*
X63524666Y-90648666D01*
X63591333Y-90582000D01*
X63691333Y-90548666D01*
X63758000Y-90548666D01*
X63858000Y-90582000D01*
X63891333Y-90615333D01*
X64491333Y-90782000D02*
X64491333Y-91248666D01*
X64324666Y-90515333D02*
X64158000Y-91015333D01*
X64591333Y-91015333D01*
%TO.C,C1*%
X81163333Y-87118000D02*
X81130000Y-87151333D01*
X81030000Y-87184666D01*
X80963333Y-87184666D01*
X80863333Y-87151333D01*
X80796666Y-87084666D01*
X80763333Y-87018000D01*
X80730000Y-86884666D01*
X80730000Y-86784666D01*
X80763333Y-86651333D01*
X80796666Y-86584666D01*
X80863333Y-86518000D01*
X80963333Y-86484666D01*
X81030000Y-86484666D01*
X81130000Y-86518000D01*
X81163333Y-86551333D01*
X81830000Y-87184666D02*
X81430000Y-87184666D01*
X81630000Y-87184666D02*
X81630000Y-86484666D01*
X81563333Y-86584666D01*
X81496666Y-86651333D01*
X81430000Y-86684666D01*
%TO.C,D4*%
X74077904Y-79192380D02*
X74077904Y-78192380D01*
X74316000Y-78192380D01*
X74458857Y-78240000D01*
X74554095Y-78335238D01*
X74601714Y-78430476D01*
X74649333Y-78620952D01*
X74649333Y-78763809D01*
X74601714Y-78954285D01*
X74554095Y-79049523D01*
X74458857Y-79144761D01*
X74316000Y-79192380D01*
X74077904Y-79192380D01*
X75506476Y-78525714D02*
X75506476Y-79192380D01*
X75268380Y-78144761D02*
X75030285Y-78859047D01*
X75649333Y-78859047D01*
%TO.C,R1*%
X67143333Y-72588380D02*
X66810000Y-72112190D01*
X66571904Y-72588380D02*
X66571904Y-71588380D01*
X66952857Y-71588380D01*
X67048095Y-71636000D01*
X67095714Y-71683619D01*
X67143333Y-71778857D01*
X67143333Y-71921714D01*
X67095714Y-72016952D01*
X67048095Y-72064571D01*
X66952857Y-72112190D01*
X66571904Y-72112190D01*
X68095714Y-72588380D02*
X67524285Y-72588380D01*
X67810000Y-72588380D02*
X67810000Y-71588380D01*
X67714761Y-71731238D01*
X67619523Y-71826476D01*
X67524285Y-71874095D01*
%TO.C,Y1*%
X72421809Y-85828190D02*
X72421809Y-86304380D01*
X72088476Y-85304380D02*
X72421809Y-85828190D01*
X72755142Y-85304380D01*
X73612285Y-86304380D02*
X73040857Y-86304380D01*
X73326571Y-86304380D02*
X73326571Y-85304380D01*
X73231333Y-85447238D01*
X73136095Y-85542476D01*
X73040857Y-85590095D01*
D11*
%TO.C,C2*%
X81139420Y-88648000D02*
X81420580Y-88648000D01*
X81139420Y-87628000D02*
X81420580Y-87628000D01*
%TO.C,C5*%
X66296000Y-89040580D02*
X66296000Y-88759420D01*
X65276000Y-89040580D02*
X65276000Y-88759420D01*
%TO.C,R2*%
X67041500Y-89137258D02*
X67041500Y-88662742D01*
X68086500Y-89137258D02*
X68086500Y-88662742D01*
%TO.C,D3*%
X76416000Y-81168333D02*
X78701000Y-81168333D01*
X78701000Y-79698333D02*
X76416000Y-79698333D01*
X78701000Y-81168333D02*
X78701000Y-79698333D01*
%TO.C,D1*%
X78701000Y-83085000D02*
X76416000Y-83085000D01*
X76416000Y-84555000D02*
X78701000Y-84555000D01*
X78701000Y-84555000D02*
X78701000Y-83085000D01*
D10*
%TO.C,U1*%
X72205000Y-84905000D02*
X71880000Y-84905000D01*
X64955000Y-84905000D02*
X64955000Y-84580000D01*
X65180000Y-84905000D02*
X65180000Y-86330000D01*
X64955000Y-77655000D02*
X64955000Y-77980000D01*
X72205000Y-84905000D02*
X72205000Y-84580000D01*
X64955000Y-77655000D02*
X65280000Y-77655000D01*
X72205000Y-77655000D02*
X72205000Y-77980000D01*
X64955000Y-84905000D02*
X65180000Y-84905000D01*
X72205000Y-77655000D02*
X71880000Y-77655000D01*
D11*
%TO.C,D2*%
X78701000Y-81391666D02*
X76416000Y-81391666D01*
X76416000Y-82861666D02*
X78701000Y-82861666D01*
X78701000Y-82861666D02*
X78701000Y-81391666D01*
%TO.C,J1*%
X62544000Y-89154000D02*
X62544000Y-90484000D01*
X62544000Y-90484000D02*
X61214000Y-90484000D01*
X62544000Y-75124000D02*
X59884000Y-75124000D01*
X62544000Y-87884000D02*
X59884000Y-87884000D01*
X59884000Y-87884000D02*
X59884000Y-75124000D01*
X62544000Y-87884000D02*
X62544000Y-75124000D01*
%TO.C,J2*%
X82356000Y-77276000D02*
X82356000Y-72076000D01*
X77216000Y-74676000D02*
X74616000Y-74676000D01*
X75946000Y-77276000D02*
X74616000Y-77276000D01*
X74616000Y-77276000D02*
X74616000Y-75946000D01*
X74616000Y-74676000D02*
X74616000Y-72076000D01*
X74616000Y-72076000D02*
X82356000Y-72076000D01*
X77216000Y-77276000D02*
X77216000Y-74676000D01*
X77216000Y-77276000D02*
X82356000Y-77276000D01*
%TO.C,C3*%
X65788000Y-74027420D02*
X65788000Y-74308580D01*
X64768000Y-74027420D02*
X64768000Y-74308580D01*
%TO.C,C4*%
X63498000Y-89040580D02*
X63498000Y-88759420D01*
X64518000Y-89040580D02*
X64518000Y-88759420D01*
%TO.C,R4*%
X81042742Y-82649166D02*
X81517258Y-82649166D01*
X81042742Y-81604166D02*
X81517258Y-81604166D01*
%TO.C,R6*%
X81042742Y-79262500D02*
X81517258Y-79262500D01*
X81042742Y-78217500D02*
X81517258Y-78217500D01*
%TO.C,C1*%
X81139420Y-85088000D02*
X81420580Y-85088000D01*
X81139420Y-86108000D02*
X81420580Y-86108000D01*
%TO.C,D4*%
X78701000Y-78005000D02*
X76416000Y-78005000D01*
X78701000Y-79475000D02*
X78701000Y-78005000D01*
X76416000Y-79475000D02*
X78701000Y-79475000D01*
%TO.C,SW1*%
X72770000Y-75568000D02*
X72770000Y-75268000D01*
X72770000Y-72768000D02*
X72770000Y-73068000D01*
X69470000Y-72768000D02*
X72770000Y-72768000D01*
X69470000Y-75268000D02*
X69470000Y-75568000D01*
X69470000Y-73068000D02*
X69470000Y-72768000D01*
X69470000Y-75568000D02*
X72770000Y-75568000D01*
%TO.C,R1*%
X67832500Y-73930742D02*
X67832500Y-74405258D01*
X66787500Y-73930742D02*
X66787500Y-74405258D01*
%TO.C,R5*%
X81042742Y-79910833D02*
X81517258Y-79910833D01*
X81042742Y-80955833D02*
X81517258Y-80955833D01*
%TO.C,R3*%
X81042742Y-83297500D02*
X81517258Y-83297500D01*
X81042742Y-84342500D02*
X81517258Y-84342500D01*
%TO.C,SW2*%
X73024000Y-90300000D02*
X73024000Y-90000000D01*
X69724000Y-87500000D02*
X73024000Y-87500000D01*
X69724000Y-87800000D02*
X69724000Y-87500000D01*
X69724000Y-90300000D02*
X73024000Y-90300000D01*
X73024000Y-87500000D02*
X73024000Y-87800000D01*
X69724000Y-90000000D02*
X69724000Y-90300000D01*
%TO.C,Y1*%
X78704000Y-90838000D02*
X78704000Y-85438000D01*
X74204000Y-90838000D02*
X78704000Y-90838000D01*
%TD*%
M02*
